<svg xmlns="http://www.w3.org/2000/svg" xmlns:xlink="http://www.w3.org/1999/xlink" style="isolation:isolate" viewBox="0 0 40 40"><defs><clipPath id="_clipPath_iRAwt7WC8RYc3kyFlaIvc5GTeQBGOZNI"><rect width="40" height="40"/></clipPath></defs><g clip-path="url(#_clipPath_iRAwt7WC8RYc3kyFlaIvc5GTeQBGOZNI)"><g id="Group"><path d="M 9 15.5 L 31 15.5 C 31.552 15.5 32 15.858 32 16.3 L 32 16.3 C 32 18.066 30.208 19.5 28 19.5 L 12 19.5 C 9.792 19.5 8 18.066 8 16.3 L 8 16.3 C 8 15.858 8.448 15.5 9 15.5 Z" style="stroke:none;fill:#4E342E;stroke-miterlimit:10;"/><path d="M 9 15.5 L 31 15.5 C 31.552 15.5 32 15.858 32 16.3 L 32 16.3 C 32 18.066 30.208 19.5 28 19.5 L 12 19.5 C 9.792 19.5 8 18.066 8 16.3 L 8 16.3 C 8 15.858 8.448 15.5 9 15.5 Z" style="fill:none;stroke:#3E2723;stroke-width:1;stroke-linecap:square;stroke-miterlimit:3;"/><g id="Horns"><path d=" M 8 5.5 L 8 7.5 C 8 8.604 8.896 9.5 10 9.5 L 14 9.5 C 16.208 9.5 18 11.292 18 13.5 L 18 13.5" fill="none" stroke-width="1" stroke="rgb(62,39,35)" stroke-linejoin="round" stroke-linecap="round" stroke-miterlimit="3"/><path d=" M 32 5.5 L 32 7.5 C 32 8.604 31.104 9.5 30 9.5 L 26 9.5 C 23.792 9.5 22 11.292 22 13.5 L 22 13.5" fill="none" stroke-width="1" stroke="rgb(62,39,35)" stroke-linejoin="round" stroke-linecap="round" stroke-miterlimit="3"/><path d=" M 10 5.5 L 10 7.5 C 10 8.604 10.896 9.5 12 9.5 L 12 9.5" fill="none" stroke-width="1" stroke="rgb(62,39,35)" stroke-linejoin="round" stroke-linecap="round" stroke-miterlimit="3"/><path d=" M 12 5.5 L 12 7.5 C 12 8.604 12.896 9.5 14 9.5 L 14 9.5" fill="none" stroke-width="1" stroke="rgb(62,39,35)" stroke-linejoin="round" stroke-linecap="round" stroke-miterlimit="3"/><path d=" M 28 5.5 L 28 7.5 C 28 8.604 27.104 9.5 26 9.5 L 26 9.5" fill="none" stroke-width="1" stroke="rgb(62,39,35)" stroke-linejoin="round" stroke-linecap="round" stroke-miterlimit="3"/><path d=" M 30 5.5 L 30 7.5 C 30 8.604 29.104 9.5 28 9.5 L 28 9.5" fill="none" stroke-width="1" stroke="rgb(62,39,35)" stroke-linejoin="round" stroke-linecap="round" stroke-miterlimit="3"/></g><path d="M 18 13.5 L 22 13.5 C 25.311 13.5 28 16.189 28 19.5 L 28 21.5 C 28 25.915 24.415 29.5 20 29.5 L 20 29.5 C 15.585 29.5 12 25.915 12 21.5 L 12 19.5 C 12 16.189 14.689 13.5 18 13.5 Z" style="stroke:none;fill:#5D4037;stroke-linecap:square;stroke-miterlimit:3;"/><path d="M 18 13.5 L 22 13.5 C 25.311 13.5 28 16.189 28 19.5 L 28 21.5 C 28 25.915 24.415 29.5 20 29.5 L 20 29.5 C 15.585 29.5 12 25.915 12 21.5 L 12 19.5 C 12 16.189 14.689 13.5 18 13.5 Z" style="fill:none;stroke:#3E2723;stroke-width:1;stroke-linecap:square;stroke-miterlimit:3;"/><path d=" M 23 19.5 L 28 19.5 C 28 16.189 25.311 13.5 22 13.5 L 18 13.5 C 14.689 13.5 12 16.189 12 19.5 L 17 19.5 L 17 32.5 C 17 33.604 17.896 34.5 19 34.5 L 21 34.5 C 22.104 34.5 23 33.604 23 32.5 L 23 19.5 Z " fill="rgb(109,76,65)" stroke-width="1" stroke="rgb(62,39,35)" stroke-linejoin="miter" stroke-linecap="square" stroke-miterlimit="3"/><g id="Nose"><path d="M 17 30.5 L 17 30.5 C 18.104 30.5 19 31.396 19 32.5 L 19 34.5 L 19 34.5 C 17.896 34.5 17 33.604 17 32.5 L 17 30.5 Z" style="stroke:none;fill:#212121;stroke-linecap:square;stroke-miterlimit:3;"/><path d="M 17 30.5 L 17 30.5 C 18.104 30.5 19 31.396 19 32.5 L 19 34.5 L 19 34.5 C 17.896 34.5 17 33.604 17 32.5 L 17 30.5 Z" style="fill:none;stroke:#3E2723;stroke-width:1;stroke-linecap:square;stroke-miterlimit:3;"/><path d="M 23 30.5 L 23 30.5 C 21.896 30.5 21 31.396 21 32.5 L 21 34.5 L 21 34.5 C 22.104 34.5 23 33.604 23 32.5 L 23 30.5 Z" style="stroke:none;fill:#212121;stroke-linecap:square;stroke-miterlimit:3;"/><path d="M 23 30.5 L 23 30.5 C 21.896 30.5 21 31.396 21 32.5 L 21 34.5 L 21 34.5 C 22.104 34.5 23 33.604 23 32.5 L 23 30.5 Z" style="fill:none;stroke:#3E2723;stroke-width:1;stroke-linecap:square;stroke-miterlimit:3;"/></g><g id="Eyes"><path d="M 12 19.5 L 28 19.5 L 28 21.5 C 28 22.604 27.104 23.5 26 23.5 L 14 23.5 C 12.896 23.5 12 22.604 12 21.5 L 12 19.5 Z" style="stroke:none;fill:#B71C1C;stroke-linecap:square;stroke-miterlimit:3;"/><path d="M 12 19.5 L 28 19.5 L 28 21.5 C 28 22.604 27.104 23.5 26 23.5 L 14 23.5 C 12.896 23.5 12 22.604 12 21.5 L 12 19.5 Z" style="fill:none;stroke:#212121;stroke-width:1;stroke-linecap:square;stroke-miterlimit:3;"/><line x1="14" y1="21.5" x2="26" y2="21.5" stroke-width="1" stroke="rgb(244,67,54)" stroke-linejoin="round" stroke-linecap="round" stroke-miterlimit="3"/></g></g></g></svg>